<svg xmlns="http://www.w3.org/2000/svg" version="1.1" xmlns:xlink="http://www.w3.org/1999/xlink" width="2000" height="2341" viewBox="0 0 2000 2341"><svg xml:space="preserve" width="2000" height="2341" data-version="2" data-id="lg_XqHzSvqtZFj82JW3eM" viewBox="0 0 488 571" x="0" y="0">
    <path fill="#C10100" d="m238.88 6.732-159.747 39.2v9.184c0 9.912-33.769 27.776-64.103 37.52L4.982 95.94v213.864c0 70.952 40.255 137.368 116.377 191.968 35.146 25.134 74.129 45.795 115.805 61.376l6.804 2.352 6.805-2.352c2.353-.84 58.76-20.552 115.74-61.376 76.186-54.6 116.505-120.96 116.505-191.968V95.884l-10.111-3.136c-30.335-9.8-64.103-27.664-64.103-37.576v-9.24L243.968 5.5z"></path>
    <path fill="none" stroke="#FEF9EE" d="m49.2.22-25.12 7v1.64c0 1.77-5.31 4.96-10.08 6.7l-1.58.59v38.19c0 12.67 6.33 24.53 18.3 34.28a76 76 0 0 0 18.21 10.96L50 100l1.07-.42c.37-.15 9.24-3.67 18.2-10.96 11.98-9.75 18.32-21.6 18.32-34.28v-38.2L86 15.58c-4.77-1.75-10.08-4.94-10.08-6.71V7.22L50 0z"
          transform="matrix(5.829 0 0 5.126 -47.218 29.2)"></path>
    <path fill="#FEF9EE" d="M93.96 262.15q-6.76 0-12.08-3.07-5.31-3.07-8.36-8.9-3.06-5.83-3.06-14.15 0-8.17 2.97-13.9t8.21-8.75q5.25-3.02 12.04-3.02 4.97 0 9.32 1.94 4.35 1.93 7.09 5.69 2.74 3.76 2.91 9.31h-10.55q-.25-.89-.8-2.01-.55-1.13-1.57-2.16-1.01-1.04-2.57-1.69-1.55-.66-3.79-.66-2.8 0-5.02.99-2.23.98-3.8 2.93-1.57 1.95-2.39 4.85-.83 2.89-.83 6.72 0 4.97 1.34 8.42 1.35 3.45 4.13 5.25 2.77 1.79 7.09 1.79 1.58 0 3.27-.26t3.21-.81q1.52-.55 2.55-1.41v-6.04h-8.66v-9.11h19.01v21.15q-4.2 3.14-8.95 5.02-4.74 1.88-10.71 1.88"></path>
    <rect width="43.16" height="51.79" x="-21.58" y="-25.895" fill="none" rx="0" ry="0" transform="matrix(1 0 0 1 92.54 236.755)"></rect>
    <path fill="#FEF9EE" d="M140.84 262.15q-5.93 0-10.33-2.36-4.4-2.37-6.83-6.84-2.43-4.46-2.43-10.74V211.3h11.07v29.63q0 2.9.54 5.04.53 2.14 1.62 3.57 1.09 1.43 2.69 2.12 1.6.69 3.74.69 2.11 0 3.68-.69 1.57-.69 2.62-2.1 1.05-1.42 1.59-3.57.53-2.16.53-5.06V211.3h11.08v30.91q0 6.17-2.42 10.66-2.41 4.48-6.8 6.88-4.38 2.4-10.35 2.4"></path>
    <rect width="39.16" height="50.85" x="-19.58" y="-25.425" fill="none" rx="0" ry="0" transform="matrix(1 0 0 1 141.33 237.225)"></rect>
    <path fill="#FEF9EE" d="m162.3 261.46 15.08-50.16h16.8l15.08 50.16h-11.63l-4.52-16.22 6.07 4.56h-24.73l.62-8.7h21.7l-3.69 4.01-4.56-16.32-2.51-10.25h-.56l-2.48 10.25-9.04 32.67Z"></path>
    <rect width="46.96" height="50.16" x="-23.48" y="-25.08" fill="none" rx="0" ry="0" transform="matrix(1 0 0 1 186.28 236.88)"></rect>
    <path fill="#FEF9EE" d="m240.79 261.46-10.8-19.29h-5.31l-2.31-.51 1-6.9v-1.11h7.28q2.41 0 3.88-.83 1.47-.82 2.12-2.33.66-1.5.66-3.53 0-2.52-.9-3.8-.9-1.27-2.36-1.74-1.47-.46-3.26-.46l-5.49-.04-2.41-3.9-.56-5.72h9.87q4.83 0 8.51 1.62 3.67 1.62 5.74 4.9 2.07 3.27 2.07 8.21 0 3.83-1.45 7.16-1.45 3.32-4.52 5.41-3.07 2.09-7.93 2.3l1.38-.56q1.34 0 2.48.25 1.14.24 2.1.89.97.66 1.73 1.87l11.42 18.11Zm-26.39 0V211.3h10.94v50.16Z"></path>
    <rect width="39.33" height="50.16" x="-19.665" y="-25.08" fill="none" rx="0" ry="0" transform="matrix(1 0 0 1 234.565 236.88)"></rect>
    <path fill="#FEF9EE" d="m266.84 261.46-.04-10.01h5.63q5.28 0 8.62-1.55 3.35-1.55 4.95-4.97 1.61-3.41 1.61-9 0-5.52-1.55-8.75-1.56-3.22-4.9-4.6-3.35-1.38-8.77-1.38h-5.83v-9.9h7.52q7.97 0 13.51 2.79t8.44 8.25q2.89 5.45 2.89 13.45 0 8.07-3 13.82-3 5.74-8.5 8.8-5.5 3.05-13.03 3.05Zm-8.42 0V211.3h10.97v50.16Z"></path>
    <rect width="40.5" height="50.16" x="-20.25" y="-25.08" fill="none" rx="0" ry="0" transform="matrix(1 0 0 1 279.17 236.88)"></rect>
    <path fill="#FEF9EE" d="M305.65 261.46V211.3h11.08v50.16Z"></path>
    <rect width="11.08" height="50.16" x="-5.54" y="-25.08" fill="none" rx="0" ry="0" transform="matrix(1 0 0 1 311.69 236.88)"></rect>
    <path fill="#FEF9EE" d="m321.69 261.46 15.08-50.16h16.8l15.08 50.16h-11.63l-4.52-16.22 6.07 4.56h-24.73l.62-8.7h21.7l-3.69 4.01-4.56-16.32-2.51-10.25h-.56l-2.48 10.25-9.04 32.67Z"></path>
    <rect width="46.96" height="50.16" x="-23.48" y="-25.08" fill="none" rx="0" ry="0" transform="matrix(1 0 0 1 345.67 236.88)"></rect>
    <path fill="#FEF9EE" d="M373.79 261.46V211.3h14.01l14.45 29.8 3.83 10.49h.24l-1.45-12.87V211.3h10.66v50.16h-14.11l-14.38-29.81-3.63-9.56h-.34l1.38 14.91v24.46Z"></path>
    <rect width="41.74" height="50.16" x="-20.87" y="-25.08" fill="none" rx="0" ry="0" transform="matrix(1 0 0 1 395.16 236.88)"></rect>
    <path fill="#FEF9EE" d="M168.65 324.09q-6.28 0-11.42-3.04-5.14-3.03-8.17-8.93-3.04-5.9-3.04-14.46 0-8.28 2.92-14.04 2.91-5.76 8.02-8.74 5.1-2.99 11.73-2.99 6.48 0 11.61 2.99 5.12 2.98 8.1 8.74 2.99 5.76 2.99 14.04 0 8.56-2.97 14.46t-8.09 8.93q-5.12 3.04-11.68 3.04m0-10.04q3.45 0 6.04-1.76t4.05-5.36q1.47-3.61 1.47-9.16 0-5.25-1.45-8.77-1.45-3.52-4.05-5.29-2.61-1.78-6.02-1.78-3.25 0-5.85 1.78-2.61 1.77-4.11 5.29-1.5 3.52-1.5 8.77 0 4.17.86 7.24.87 3.07 2.42 5.07 1.55 2 3.64 2.99 2.09.98 4.5.98"></path>
    <rect width="45.37" height="52.2" x="-22.685" y="-26.1" fill="none" rx="0" ry="0" transform="matrix(1 0 0 1 169.205 298.49)"></rect>
    <path fill="#FEF9EE" d="M213.92 306.39q-2.21 0-3.33-1.15-1.12-1.16-1.54-3.61l-1.62-2.21 2.41-1.96h5.73q2.83 0 4.69-.83 1.87-.83 2.8-2.61.93-1.77.93-4.64 0-4.41-2.23-5.93-2.22-1.52-6.33-1.52h-5.79l-2.97-9.04h9.97q9.11 0 13.85 3.83 4.75 3.83 4.75 12.11 0 3.49-.99 6.64-.98 3.16-3.15 5.63-2.18 2.46-5.71 3.88-3.54 1.41-8.68 1.41Zm-15.01 16.66v-50.16h10.93v50.16Z"></path>
    <rect width="36.33" height="50.16" x="-18.165" y="-25.08" fill="none" rx="0" ry="0" transform="matrix(1 0 0 1 217.575 298.47)"></rect>
    <path fill="#FEF9EE" d="M251.66 323.05v-36.08q0-2.07.76-3 .76-.94 2.31-1.18h-15.46v-9.9h35.68v9.9h-12.32v40.26Z"></path>
    <rect width="35.68" height="50.16" x="-17.84" y="-25.08" fill="none" rx="0" ry="0" transform="matrix(1 0 0 1 257.61 298.47)"></rect>
    <path fill="#FEF9EE" d="M280.98 323.05v-50.16h11.08v50.16Z"></path>
    <rect width="11.08" height="50.16" x="-5.54" y="-25.08" fill="none" rx="0" ry="0" transform="matrix(1 0 0 1 287.02 298.47)"></rect>
    <path fill="#FEF9EE" d="m298.58 323.05 15.28-24.97-15.01-25.19h12.63l5.18 9.87 4.72 9.07 4.56-9 5.03-9.94h12.67l-14.84 25.19 15.11 24.97h-12.66l-5.66-10.28-4.38-8.72-4.21 8.79-5.79 10.21Z"></path>
    <rect width="45.33" height="50.16" x="-22.665" y="-25.08" fill="none" rx="0" ry="0" transform="matrix(1 0 0 1 321.745 298.47)"></rect>
    <path fill="#FEF9EE" d="M200.98 156.68q-2.07 0-3.53-.82-1.47-.83-2.24-2.4-.78-1.57-.78-3.79 0-2.3.83-3.88.82-1.58 2.32-2.4 1.5-.81 3.52-.81 1.95 0 3.28.74 1.33.74 2.02 2.17.68 1.44.68 3.54 0 .26-.02.61-.01.34-.04.78h-8.77q.13 1.7.82 2.48t1.93.78q1.02 0 1.55-.45t.63-1.19h3.73q-.11 1.42-.86 2.46-.74 1.04-2.03 1.61-1.29.57-3.04.57m-1.15-8.45h3.52q-.05-1.31-.64-1.96-.58-.65-1.78-.65-1.41 0-2.06 1-.65 1.01-.66 2.86.1-.71.49-.98.38-.27 1.13-.27"></path>
    <rect width="12.65" height="14.1" x="-6.325" y="-7.05" fill="none" rx="0" ry="0" transform="matrix(1 0 0 1 201.255 150.13)"></rect>
    <path fill="#FEF9EE" d="M214.62 156.71q-1.76 0-3.03-.52-1.27-.51-1.97-1.55-.7-1.05-.77-2.66h3.78q.12 1 .65 1.48.53.47 1.43.47.45 0 .86-.11.41-.1.68-.37.26-.27.26-.74 0-.39-.2-.64-.19-.24-.56-.41-.37-.17-.89-.31-.53-.14-1.19-.34-1.17-.35-2.19-.85t-1.65-1.34q-.62-.84-.62-2.2 0-2.04 1.49-3.03 1.5-.98 3.92-.98 1.43 0 2.56.38 1.14.39 1.88 1.38.75.99.96 2.79l-3.76-.03q-.11-.8-.39-1.19-.27-.4-.62-.53t-.73-.13q-.42 0-.77.14-.34.14-.54.4t-.2.66q0 .48.3.81.3.34.91.6.61.25 1.56.52.63.16 1.41.4.78.23 1.5.66.72.42 1.19 1.15.47.72.47 1.87 0 2-1.54 3.11-1.54 1.11-4.19 1.11"></path>
    <rect width="11.5" height="14.1" x="-5.75" y="-7.05" fill="none" rx="0" ry="0" transform="matrix(1 0 0 1 215.1 150.16)"></rect>
    <path fill="#FEF9EE" d="M226.92 156.66q-1.69 0-2.62-.86-.94-.86-.95-2.66l-.04-6.1q0-.47.27-.77.27-.3.75-.39l-1.02-2.49v-.41l.71-4.04h3.16v13q0 .88.22 1.22.22.33.85.33.62 0 1.04-.02.42-.03.79-.09v3.06q-.45.17-1.34.19-.89.03-1.82.03m-5.06-10.78v-3.02H230v3.02Z"></path>
    <rect width="8.22" height="17.72" x="-4.11" y="-8.86" fill="none" rx="0" ry="0" transform="matrix(1 0 0 1 226.47 148.3)"></rect>
    <path fill="#FEF9EE" d="M234.07 156.68q-.9 0-1.54-.66-.63-.65-.63-1.69 0-1.02.63-1.67.64-.65 1.54-.65t1.54.65q.64.65.64 1.67 0 1.04-.64 1.69-.64.66-1.54.66"></path>
    <rect width="4.35" height="4.67" x="-2.175" y="-2.335" fill="none" rx="0" ry="0" transform="matrix(1 0 0 1 234.575 154.845)"></rect>
    <path fill="#FEF9EE" d="M237.3 156.49q.82-1.03 1.58-2.01.77-.97 1.48-1.9.72-.92 1.39-1.8l1.31-1.7q1.19-1.55 1.91-2.51.73-.95 1.06-1.66.34-.7.34-1.47 0-.88-.51-1.54-.5-.66-1.83-.64-.82 0-1.43.38-.62.39-.87 1.2-.25.8 0 2.05h-3.6q-.32-2.46.37-3.99.7-1.53 2.15-2.24 1.46-.72 3.42-.72 1.98 0 3.3.64 1.33.64 1.99 1.77.66 1.13.66 2.62 0 1.44-.46 2.6-.46 1.17-1.15 2.14-.68.97-1.33 1.85-.52.68-1.05 1.38-.52.69-1.05 1.38-.52.69-1.05 1.37.42-.42.94-.55.53-.13 1.46-.13h3.64v3.48Z"></path>
    <rect width="12.72" height="18.55" x="-6.36" y="-9.275" fill="none" rx="0" ry="0" transform="matrix(1 0 0 1 244.16 147.715)"></rect>
    <path fill="#FEF9EE" d="M258.96 156.77q-2 0-3.52-.97t-2.37-3.06q-.85-2.1-.85-5.45 0-3.25.85-5.31.85-2.06 2.37-3.04t3.52-.98q2.01 0 3.52.98 1.5.98 2.35 3.04.84 2.06.84 5.31 0 3.35-.84 5.45-.85 2.09-2.35 3.06-1.51.97-3.52.97m0-3.59q.85 0 1.45-.54.61-.55.94-1.83.32-1.29.32-3.49 0-2.16-.32-3.43-.33-1.26-.94-1.8-.6-.55-1.45-.55t-1.46.55q-.62.54-.94 1.8-.33 1.27-.33 3.43 0 2.2.33 3.49.32 1.28.94 1.83.61.54 1.46.54"></path>
    <rect width="13.45" height="18.81" x="-6.725" y="-9.405" fill="none" rx="0" ry="0" transform="matrix(1 0 0 1 259.445 147.865)"></rect>
    <path fill="#FEF9EE" d="M266.82 156.49q.83-1.03 1.59-2.01.76-.97 1.48-1.9.72-.92 1.39-1.8.67-.87 1.3-1.7 1.19-1.55 1.92-2.51.72-.95 1.06-1.66.34-.7.34-1.47 0-.88-.51-1.54t-1.83-.64q-.83 0-1.44.38-.61.39-.86 1.2-.25.8 0 2.05h-3.6q-.33-2.46.37-3.99.69-1.53 2.15-2.24 1.45-.72 3.42-.72t3.3.64q1.32.64 1.98 1.77.67 1.13.67 2.62 0 1.44-.47 2.6-.46 1.17-1.14 2.14-.68.97-1.33 1.85-.53.68-1.05 1.38-.53.69-1.05 1.38l-1.05 1.37q.41-.42.94-.55.52-.13 1.46-.13h3.64v3.48Z"></path>
    <rect width="12.73" height="18.55" x="-6.365" y="-9.275" fill="none" rx="0" ry="0" transform="matrix(1 0 0 1 273.685 147.715)"></rect>
    <path fill="#FEF9EE" d="M287.76 156.76q-1.88 0-3.33-.74-1.45-.74-2.23-2.08-.78-1.33-.65-3.12h3.7q.08.79.42 1.3.34.51.91.76.58.25 1.39.25.88 0 1.43-.34.56-.35.83-1.01.27-.66.27-1.61 0-1.45-.65-2.05-.64-.59-1.75-.59-1.18 0-1.82.47-.63.47-1 .93l-3.42-1.02 1.1-9.59h10.44v3.59H286l-1.08 5.36q.25-.81.66-1.36.42-.54 1.02-.87.47-.28 1.11-.43.65-.14 1.44-.14.98 0 1.93.29.95.28 1.73.94.77.66 1.24 1.74.46 1.09.46 2.69 0 2-.84 3.49-.84 1.49-2.35 2.31-1.51.83-3.56.83"></path>
    <rect width="13.024" height="18.44" x="-6.512" y="-9.22" fill="none" rx="0" ry="0" transform="matrix(1 0 0 1 288.498 148.04)"></rect>
    <path fill="#FFB300" stroke="#FEF9EE" stroke-width="2.089" d="M86.995 182.377H401.52M90.47 350.401h314.524"></path>
    <path fill="#FEF9EE" d="m105.67 392.92 3.93-13.08h4.38l3.94 13.08h-3.04l-1.18-4.23 1.59 1.19h-6.45l.16-2.27h5.66l-.96 1.05-1.19-4.26-.66-2.67h-.14l-.65 2.67-2.36 8.52Z"></path>
    <rect width="12.25" height="13.08" x="-6.125" y="-6.54" fill="none" rx="0" ry="0" transform="matrix(1 0 0 1 112.295 386.88)"></rect>
    <path fill="#FEF9EE" d="M126.71 393.1q-1.5 0-2.71-.47-1.2-.47-1.87-1.46-.68-.99-.62-2.53h2.79q.02.65.27 1.11.25.45.79.69.54.24 1.4.24.71 0 1.16-.14.45-.15.66-.43.21-.28.21-.7 0-.46-.29-.76t-.9-.56q-.62-.26-1.59-.59-1.21-.44-2.11-.98-.91-.54-1.4-1.32-.5-.78-.5-1.93 0-1.78 1.24-2.71 1.24-.93 3.36-.93 1.45 0 2.42.45.97.46 1.49 1.36.52.9.61 2.23h-2.74q-.01-.52-.22-.88-.2-.36-.59-.55-.38-.19-.96-.19-.87 0-1.33.28-.46.29-.46.9 0 .46.21.78t.73.6q.53.28 1.45.62.87.31 1.66.61.8.31 1.43.71.63.41.99 1.04.37.62.37 1.58.01 1.96-1.34 2.95-1.35.98-3.61.98"></path>
    <rect width="10.176" height="13.47" x="-5.088" y="-6.735" fill="none" rx="0" ry="0" transform="matrix(1 0 0 1 127.074 386.865)"></rect>
    <path fill="#FEF9EE" d="M137.65 393.06q-1.49 0-2.54-.6-1.06-.59-1.61-1.72-.56-1.13-.56-2.73 0-1.66.59-2.8.6-1.13 1.68-1.72 1.08-.58 2.52-.58 1.41 0 2.37.53.96.53 1.45 1.56.5 1.04.5 2.55 0 .19-.02.44-.01.24-.03.56h-6.32q.1 1.22.6 1.78.49.57 1.38.57.74 0 1.12-.33.39-.32.46-.85h2.68q-.08 1.02-.62 1.77-.53.75-1.46 1.16-.93.41-2.19.41m-.82-6.09h2.52q-.03-.94-.45-1.41-.42-.47-1.28-.47-1.02 0-1.49.73-.47.72-.47 2.05.07-.51.35-.7.28-.2.82-.2"></path>
    <rect width="9.11" height="10.15" x="-4.555" y="-5.075" fill="none" rx="0" ry="0" transform="matrix(1 0 0 1 137.995 388.485)"></rect>
    <path fill="#FEF9EE" d="M148 393.09q-1.54 0-2.58-.64t-1.57-1.8q-.53-1.16-.53-2.69 0-1.56.55-2.7.54-1.13 1.58-1.74 1.04-.61 2.51-.61 1.44 0 2.38.5.95.49 1.4 1.35.45.86.39 1.95h-2.7q-.02-.41-.12-.71-.1-.3-.29-.5-.18-.19-.45-.29-.26-.09-.61-.09-.95 0-1.41.69-.45.69-.45 2.11 0 1.55.51 2.22.51.67 1.45.71.37.02.7-.11.33-.14.54-.46.21-.32.2-.84h2.67q.03 1.09-.46 1.91-.48.83-1.43 1.28-.94.46-2.28.46"></path>
    <rect width="8.861" height="10.18" x="-4.43" y="-5.09" fill="none" rx="0" ry="0" transform="matrix(1 0 0 1 148.25 388.5)"></rect>
    <path fill="#FEF9EE" d="M156.49 393.12q-1.33 0-2.07-.89-.74-.88-.74-2.67v-6.47h2.81v5.53q0 .91.15 1.39.15.47.42.65.27.17.65.17.55 0 1.01-.36.45-.36.68-.86v-6.52h2.81v9.83h-2.49l-.25-3.71.11.75q-.11.81-.43 1.53t-.95 1.18q-.64.45-1.71.45"></path>
    <rect width="8.53" height="10.03" x="-4.265" y="-5.015" fill="none" rx="0" ry="0" transform="matrix(1 0 0 1 158.445 388.605)"></rect>
    <path fill="#FEF9EE" d="M164.51 392.92v-9.82h2.5l.24 3.85-.17-.59q.08-.77.3-1.41.22-.63.56-1.09.34-.46.82-.71.48-.25 1.1-.25.18 0 .37.01.18.02.33.07v2.9q-.31-.08-.59-.11-.29-.03-.56-.03-.5 0-.9.09t-.7.27q-.29.19-.49.48v6.34Z"></path>
    <rect width="6.05" height="10.02" x="-3.025" y="-5.01" fill="none" rx="0" ry="0" transform="matrix(1 0 0 1 168.035 388.41)"></rect>
    <path fill="#FEF9EE" d="M171.89 392.92v-9.82h2.79v9.82Zm1.4-10.94q-.7 0-1.19-.49-.5-.49-.5-1.26 0-.76.5-1.24.49-.49 1.19-.49t1.19.49q.5.48.5 1.24 0 .77-.5 1.26-.49.49-1.19.49"></path>
    <rect width="3.38" height="14.42" x="-1.69" y="-7.21" fill="none" rx="0" ry="0" transform="matrix(1 0 0 1 173.79 386.21)"></rect>
    <path fill="#FEF9EE" d="M179.86 393.04q-1.21 0-1.89-.62-.67-.61-.68-1.91l-.03-4.39q0-.34.2-.56.19-.22.54-.28l-.74-1.79v-.3l.52-2.9h2.27v9.36q0 .63.16.87t.61.24q.45 0 .75-.02.3-.01.57-.06v2.21q-.32.11-.97.13-.64.02-1.31.02m-3.64-7.76v-2.18h5.86v2.18Z"></path>
    <rect width="5.92" height="12.75" x="-2.96" y="-6.375" fill="none" rx="0" ry="0" transform="matrix(1 0 0 1 179.68 387.165)"></rect>
    <path fill="#FEF9EE" d="M184.31 396.8v-2.37h1.07q.65 0 .99-.11.34-.1.51-.3.17-.19.26-.45.12-.31.23-.45.11-.14.28-.2h-1.09l-3.27-9.82h3.03l1.3 5.25.45 1.91h.08l.42-1.9 1.25-5.26h3l-3.11 9.82q-.29.9-.65 1.62-.36.72-.85 1.23-.5.5-1.19.77-.69.26-1.64.26Z"></path>
    <rect width="9.53" height="13.7" x="-4.765" y="-6.85" fill="none" rx="0" ry="0" transform="matrix(1 0 0 1 188.555 390.45)"></rect>
    <path fill="#FEF9EE" d="M197.23 392.92v-13.08h4.76l1.65 7.25.46 2.24h.04l.46-2.24 1.63-7.25H211v13.08h-2.8v-6.61l.28-4.23h-.09l-1.21 4.2-1.89 6.64h-2.31l-1.92-6.64-1.22-4.2h-.09l.28 4.23v6.61Z"></path>
    <rect width="13.77" height="13.08" x="-6.885" y="-6.54" fill="none" rx="0" ry="0" transform="matrix(1 0 0 1 204.615 386.88)"></rect>
    <path fill="#FEF9EE" d="M215.81 393.03q-.84 0-1.52-.31-.68-.32-1.07-.93-.4-.61-.4-1.5 0-.9.37-1.47.36-.58.99-.91.63-.32 1.42-.49.53-.1 1.1-.18.56-.07 1.06-.11.5-.05.85-.08v-.27q0-.93-.31-1.31t-1.09-.38q-.49 0-.83.14-.34.13-.5.48-.17.35-.16 1h-2.65q-.1-1.29.41-2.14.51-.84 1.5-1.25.99-.41 2.32-.41.78 0 1.51.17t1.3.57q.58.4.91 1.09.34.69.34 1.76v6.42h-2.77l.02-2.29q-.16.99-.81 1.69-.64.71-1.99.71m.93-1.85q.44 0 .84-.17.4-.17.68-.46.28-.29.35-.65v-1.55q-.36.05-.73.12-.37.06-.65.13-.9.2-1.23.55-.33.34-.33.9 0 .35.12.6.12.26.36.39.24.14.59.14"></path>
    <rect width="8.54" height="10.12" x="-4.27" y="-5.06" fill="none" rx="0" ry="0" transform="matrix(1 0 0 1 217.59 388.47)"></rect>
    <path fill="#FEF9EE" d="M223.61 392.92v-9.82h2.5l.24 3.7-.11-.74q.11-.81.42-1.54.32-.72.94-1.17.63-.45 1.66-.45 1.35 0 2.16.86.81.87.81 2.66v6.5h-2.79v-5.46q0-.94-.17-1.43-.16-.49-.46-.67-.29-.18-.7-.18-.57 0-1.01.37-.45.36-.68.86v6.51Z"></path>
    <rect width="8.62" height="10.02" x="-4.31" y="-5.01" fill="none" rx="0" ry="0" transform="matrix(1 0 0 1 228.42 388.41)"></rect>
    <path fill="#FEF9EE" d="M236.97 393.03q-.84 0-1.52-.31-.68-.32-1.07-.93-.4-.61-.4-1.5 0-.9.36-1.47.37-.58 1-.91.63-.32 1.42-.49.53-.1 1.09-.18.57-.07 1.07-.11.5-.05.85-.08v-.27q0-.93-.31-1.31t-1.09-.38q-.49 0-.83.14-.34.13-.5.48-.17.35-.16 1h-2.65q-.11-1.29.41-2.14.51-.84 1.5-1.25.99-.41 2.32-.41.78 0 1.51.17.72.17 1.3.57.58.4.91 1.09.34.69.34 1.76v6.42h-2.77l.02-2.29q-.16.99-.81 1.69-.64.71-1.99.71m.93-1.85q.44 0 .84-.17.4-.17.68-.46.28-.29.35-.65v-1.55q-.36.05-.73.12-.37.06-.65.13-.9.2-1.23.55-.34.34-.34.9 0 .35.13.6.12.26.36.39.24.14.59.14"></path>
    <rect width="8.54" height="10.12" x="-4.27" y="-5.06" fill="none" rx="0" ry="0" transform="matrix(1 0 0 1 238.75 388.47)"></rect>
    <path fill="#FEF9EE" d="M248.95 396.96q-1.46.02-2.49-.43-1.02-.46-1.52-1.29-.5-.82-.38-1.89h2.72q-.01.4.14.72.14.32.52.51t1.06.19q.63 0 .98-.19.34-.18.49-.55.14-.37.14-.92v-2.76q-.12.78-.46 1.29-.34.5-.88.75-.54.24-1.29.24-.89 0-1.58-.36-.68-.37-1.17-1.03-.48-.65-.72-1.51-.25-.86-.25-1.84 0-1.59.49-2.7t1.35-1.7q.86-.58 1.97-.58.71 0 1.22.21.52.21.86.55.35.35.5.77l.1-1.34h2.64v9.75q0 1.31-.5 2.22-.5.91-1.49 1.39-.99.48-2.45.5m-.04-6.61q.46 0 .81-.11.34-.1.57-.27.22-.18.32-.38v-3.4q-.09-.28-.3-.49-.22-.22-.56-.35-.33-.13-.78-.13-.9 0-1.4.66-.5.65-.5 2 0 1.17.46 1.82.45.65 1.38.65"></path>
    <rect width="9.13" height="14.056" x="-4.565" y="-7.028" fill="none" rx="0" ry="0" transform="matrix(1 0 0 1 249.325 390.438)"></rect>
    <path fill="#FEF9EE" d="M259.78 393.06q-1.49 0-2.54-.6-1.06-.59-1.61-1.72-.56-1.13-.56-2.73 0-1.66.59-2.8.6-1.13 1.68-1.72 1.08-.58 2.52-.58 1.41 0 2.37.53.96.53 1.45 1.56.5 1.04.5 2.55 0 .19-.02.44-.01.24-.03.56h-6.32q.1 1.22.6 1.78.49.57 1.38.57.74 0 1.12-.33.39-.32.46-.85h2.68q-.08 1.02-.62 1.77-.53.75-1.46 1.16-.93.41-2.19.41m-.82-6.09h2.52q-.03-.94-.45-1.41-.42-.47-1.28-.47-1.02 0-1.49.73-.47.72-.47 2.05.07-.51.35-.7.28-.2.82-.2"></path>
    <rect width="9.11" height="10.15" x="-4.555" y="-5.075" fill="none" rx="0" ry="0" transform="matrix(1 0 0 1 260.125 388.485)"></rect>
    <path fill="#FEF9EE" d="M265.89 392.92v-9.82h2.5l.23 3.7-.11-.74q.11-.81.4-1.54.3-.72.89-1.17.6-.45 1.63-.45 1.16 0 1.93.7t.94 2.18l.04.47v6.67h-2.81v-5.46q0-.94-.16-1.43t-.43-.67q-.27-.18-.63-.18-.57 0-.98.37-.41.36-.64.86v6.51Zm11.27 0v-5.46q0-.94-.16-1.43-.15-.49-.42-.67-.27-.18-.63-.18-.58 0-.98.37-.41.36-.63.86l-.07.39-.04-.69q.08-.77.35-1.5.28-.74.87-1.23.59-.48 1.6-.48 1.31 0 2.11.86.81.87.81 2.66v6.5Z"></path>
    <rect width="14.08" height="10.02" x="-7.04" y="-5.01" fill="none" rx="0" ry="0" transform="matrix(1 0 0 1 273.43 388.41)"></rect>
    <path fill="#FEF9EE" d="M286.36 393.06q-1.49 0-2.55-.6-1.05-.59-1.61-1.72t-.56-2.73q0-1.66.6-2.8.59-1.13 1.67-1.72 1.08-.58 2.53-.58 1.41 0 2.36.53.96.53 1.46 1.56.49 1.04.49 2.55 0 .19-.01.44-.01.24-.03.56h-6.32q.1 1.22.59 1.78.5.57 1.39.57.74 0 1.12-.33.38-.32.45-.85h2.69q-.08 1.02-.62 1.77t-1.46 1.16q-.93.41-2.19.41m-.83-6.09h2.53q-.03-.94-.45-1.41-.42-.47-1.29-.47-1.01 0-1.48.73-.47.72-.48 2.05.07-.51.35-.7.28-.2.82-.2"></path>
    <rect width="9.11" height="10.15" x="-4.555" y="-5.075" fill="none" rx="0" ry="0" transform="matrix(1 0 0 1 286.695 388.485)"></rect>
    <path fill="#FEF9EE" d="M292.46 392.92v-9.82h2.5l.24 3.7-.11-.74q.11-.81.42-1.54.32-.72.94-1.17.63-.45 1.66-.45 1.35 0 2.16.86.81.87.81 2.66v6.5h-2.79v-5.46q0-.94-.17-1.43-.16-.49-.46-.67-.29-.18-.7-.18-.57 0-1.01.37-.45.36-.68.86v6.51Z"></path>
    <rect width="8.62" height="10.02" x="-4.31" y="-5.01" fill="none" rx="0" ry="0" transform="matrix(1 0 0 1 297.27 388.41)"></rect>
    <path fill="#FEF9EE" d="M306.04 393.04q-1.21 0-1.89-.62-.67-.61-.68-1.91l-.03-4.39q0-.34.2-.56.19-.22.54-.28l-.74-1.79v-.3l.52-2.9h2.27v9.36q0 .63.16.87t.61.24q.45 0 .75-.02.3-.01.57-.06v2.21q-.32.11-.97.13-.64.02-1.31.02m-3.64-7.76v-2.18h5.86v2.18Z"></path>
    <rect width="5.92" height="12.75" x="-2.96" y="-6.375" fill="none" rx="0" ry="0" transform="matrix(1 0 0 1 305.86 387.165)"></rect>
    <path fill="#FEF9EE" d="M317.59 393.1q-1.5 0-2.7-.47-1.21-.47-1.88-1.46-.68-.99-.62-2.53h2.79q.02.65.27 1.11.25.45.79.69.54.24 1.4.24.71 0 1.16-.14.45-.15.66-.43.21-.28.21-.7 0-.46-.29-.76t-.9-.56q-.62-.26-1.59-.59-1.21-.44-2.11-.98-.91-.54-1.4-1.32-.5-.78-.5-1.93 0-1.78 1.24-2.71 1.24-.93 3.36-.93 1.45 0 2.42.45.98.46 1.49 1.36.52.9.61 2.23h-2.74q-.01-.52-.22-.88-.2-.36-.59-.55-.38-.19-.96-.19-.87 0-1.33.28-.46.29-.46.9 0 .46.21.78t.74.6q.52.28 1.44.62.87.31 1.66.61.8.31 1.43.71.63.41 1 1.04.36.62.36 1.58.01 1.96-1.34 2.95-1.35.98-3.61.98"></path>
    <rect width="10.176" height="13.47" x="-5.088" y="-6.735" fill="none" rx="0" ry="0" transform="matrix(1 0 0 1 317.954 386.865)"></rect>
    <path fill="#FEF9EE" d="M328.52 393.06q-1.43 0-2.49-.59-1.05-.58-1.63-1.72-.58-1.14-.58-2.8 0-1.56.61-2.7.61-1.13 1.68-1.74 1.07-.6 2.44-.6 1.48 0 2.53.6 1.05.61 1.61 1.74.56 1.14.56 2.7 0 1.66-.62 2.8t-1.69 1.72q-1.07.59-2.42.59m.03-2.32q.82 0 1.37-.6.55-.61.55-2.19 0-1.46-.57-2.1-.57-.63-1.37-.63-.82 0-1.37.63-.55.64-.55 2.1 0 1.52.57 2.16.58.63 1.37.63"></path>
    <rect width="9.43" height="10.15" x="-4.715" y="-5.075" fill="none" rx="0" ry="0" transform="matrix(1 0 0 1 329.035 388.485)"></rect>
    <path fill="#FEF9EE" d="M335.02 392.92v-14.06h2.81v14.06Z"></path>
    <rect width="2.81" height="14.06" x="-1.405" y="-7.03" fill="none" rx="0" ry="0" transform="matrix(1 0 0 1 336.925 386.39)"></rect>
    <path fill="#FEF9EE" d="M342.95 393.12q-1.33 0-2.07-.89-.74-.88-.74-2.67v-6.47h2.81v5.53q0 .91.15 1.39.15.47.42.65.27.17.65.17.56 0 1.01-.36.45-.36.68-.86v-6.52h2.81v9.83h-2.49l-.25-3.71.11.75q-.11.81-.43 1.53t-.95 1.18q-.64.45-1.71.45"></path>
    <rect width="8.53" height="10.03" x="-4.265" y="-5.015" fill="none" rx="0" ry="0" transform="matrix(1 0 0 1 344.905 388.605)"></rect>
    <path fill="#FEF9EE" d="M353.84 393.04q-1.21 0-1.89-.62-.67-.61-.68-1.91l-.03-4.39q0-.34.19-.56.2-.22.55-.28l-.74-1.79v-.3l.51-2.9h2.28v9.36q0 .63.16.87t.61.24q.45 0 .75-.02.3-.01.57-.06v2.21q-.32.11-.97.13-.64.02-1.31.02m-3.64-7.76v-2.18h5.86v2.18Z"></path>
    <rect width="5.92" height="12.75" x="-2.96" y="-6.375" fill="none" rx="0" ry="0" transform="matrix(1 0 0 1 353.66 387.165)"></rect>
    <path fill="#FEF9EE" d="M357.63 392.92v-9.82h2.79v9.82Zm1.41-10.94q-.71 0-1.2-.49-.5-.49-.5-1.26 0-.76.5-1.24.49-.49 1.2-.49.69 0 1.18.49.5.48.5 1.24 0 .77-.5 1.26-.49.49-1.18.49"></path>
    <rect width="3.38" height="14.42" x="-1.69" y="-7.21" fill="none" rx="0" ry="0" transform="matrix(1 0 0 1 359.53 386.21)"></rect>
    <path fill="#FEF9EE" d="M366.88 393.06q-1.43 0-2.48-.59-1.05-.58-1.63-1.72-.58-1.14-.58-2.8 0-1.56.61-2.7.61-1.13 1.68-1.74 1.07-.6 2.44-.6 1.48 0 2.52.6 1.05.61 1.61 1.74.57 1.14.57 2.7 0 1.66-.62 2.8t-1.7 1.72q-1.07.59-2.42.59m.04-2.32q.82 0 1.37-.6.55-.61.55-2.19 0-1.46-.58-2.1-.57-.63-1.37-.63-.82 0-1.37.63-.54.64-.54 2.1 0 1.52.57 2.16.58.63 1.37.63"></path>
    <rect width="9.43" height="10.15" x="-4.715" y="-5.075" fill="none" rx="0" ry="0" transform="matrix(1 0 0 1 367.405 388.485)"></rect>
    <path fill="#FEF9EE" d="M373.38 392.92v-9.82h2.5l.24 3.7-.11-.74q.11-.81.42-1.54.32-.72.94-1.17.63-.45 1.66-.45 1.34 0 2.16.86.81.87.81 2.66v6.5h-2.8v-5.46q0-.94-.16-1.43t-.46-.67q-.29-.18-.7-.18-.57 0-1.02.37-.44.36-.67.86v6.51Z"></path>
    <rect width="8.62" height="10.02" x="-4.31" y="-5.01" fill="none" rx="0" ry="0" transform="matrix(1 0 0 1 378.19 388.41)"></rect>
</svg></svg>